<svg xmlns="http://www.w3.org/2000/svg" viewBox="0 0 2246 633"><defs><style>.cls-1{fill:#157907;}.cls-2{fill:none;stroke:#157907;stroke-miterlimit:10;stroke-width:60px;}</style></defs><title>dapo</title><g id="d"><path class="cls-1" d="M259.4,102a166.49,166.49,0,1,1-117.73,48.76A165.42,165.42,0,0,1,259.4,102m0-60C134.31,42,32.9,143.37,32.9,268.46S134.31,495,259.4,495s226.5-101.41,226.5-226.5S384.49,42,259.4,42Z" transform="translate(-32.9 -41.96)"/><line class="cls-2" x1="423" y1="218" x2="423"/></g><g id="a"><path class="cls-1" d="M856.4,102a166.49,166.49,0,1,1-117.73,48.76A165.42,165.42,0,0,1,856.4,102m0-60c-125.09,0-226.5,101.41-226.5,226.5S731.31,495,856.4,495s226.5-101.41,226.5-226.5S981.49,42,856.4,42Z" transform="translate(-32.9 -41.96)"/><line class="cls-2" x1="1020" y1="235" x2="1020" y2="453"/></g><g id="p"><path class="cls-1" d="M1465.4,102a166.49,166.49,0,1,1-117.73,48.76A165.44,165.44,0,0,1,1465.4,102m0-60c-125.09,0-226.5,101.41-226.5,226.5S1340.31,495,1465.4,495s226.5-101.41,226.5-226.5S1590.49,42,1465.4,42Z" transform="translate(-32.9 -41.96)"/><line class="cls-2" x1="1236" y1="235" x2="1236" y2="453"/></g><g id="o"><path class="cls-1" d="M2052.4,42c-125.09,0-226.5,101.41-226.5,226.5S1927.31,495,2052.4,495s226.5-101.41,226.5-226.5S2177.49,42,2052.4,42ZM2247,361.77c-.33,0-3.35-.43-6.73-.95l-6.13-1-17.65-7.1L2199.81,346a166.57,166.57,0,0,1-265.14,40.17,169.48,169.48,0,0,1-15.51-17.85L1903.71,376l-17.62,8.69-5.79,1.06c-3.17.58-7.86,1.44-10.42,1.89l-4.61.83-.15-.76a2.82,2.82,0,0,1-.09-.86s4.08-1,9-2.16l9-2.14,22.77-12.64,10.31-5.73q-1.68-2.37-3.25-4.8l-5.14,2.24-14,6.06-7,1.56-7,1.52-7.4-.52c-4.06-.27-8-.52-8.66-.52-1.19,0-1.34-.12-1.92-1.25a3.19,3.19,0,0,1-.46-1.52,3.6,3.6,0,0,1,1.28-.64c.89-.27,2.93-.27,9.51,0l8.41.37,9.09-2.5a119.05,119.05,0,0,0,17.55-5.95l3.88-1.59a166.55,166.55,0,1,1,289.14-164.91l.85-2.65c6-18.81,7.53-23.86,10.46-35.36l3.41-13.41,1.37-.18c2.93-.43,2.75-.61,4.06,4l1.18,4.12-4,14-4,14-7.93,19.35-1.6,3.93a167.33,167.33,0,0,1-1.95,141.86c4.34,1.94,10.78,4.71,16.57,7.09l14.42,6,4.93.71c2.72.39,6.31.88,8,1.09,4.11.49,4.23.55,4.63,2.23l.31,1.4-1.68.91A7.59,7.59,0,0,1,2247,361.77Z" transform="translate(-32.9 -41.96)"/><g id="inner"><path class="cls-1" d="M2059.51,239.68a40.22,40.22,0,0,0,7.22,1.65c.37-.43,9.73-20.88,9.64-21.12s-4.18-2.93-9.18-6.22-9.23-6-9.45-6.13-.67.25-1,.73c-.61.83-.67,1.38-.89,10.09l-.21,9.21.88-.34a5.77,5.77,0,0,1,2.35-.15c1.34.18,1.52.33,1.92,1.25s.37,1.49-.46,6C2059.82,237.37,2059.48,239.65,2059.51,239.68Z" transform="translate(-32.9 -41.96)"/><path class="cls-1" d="M2009.07,312.25c0,.67-.4,5.73-.91,11.22s-1.47,16.36-2.14,24.17-1.37,15.6-1.52,17.34a21.38,21.38,0,0,0-.21,3.26c.12.12,27.18-36.51,27.52-37.31.82-2,.79-2.34-.52-4-1-1.28-12.86-11.43-16-13.68a15.24,15.24,0,0,0-3.17-1.44C2009.13,310.82,2009.07,310.82,2009.07,312.25Z" transform="translate(-32.9 -41.96)"/><path class="cls-1" d="M2098.55,221.61c-5.51-11.43-7.19-14.66-7.65-14.72s-1,.91-3.41,7.28a74.62,74.62,0,0,0-2.68,7.59c.24.37,20.6,14.72,20.69,14.6S2102.42,229.65,2098.55,221.61Z" transform="translate(-32.9 -41.96)"/><path class="cls-1" d="M2079.75,234.53c-1.74,5.21-3.08,9.51-3,9.57.25.15,37.95,11.71,38,11.61s-1.19-2.71-2.74-6l-2.81-5.91-12.8-9.12-13.17-9.35C2083,225.17,2082,227.61,2079.75,234.53Z" transform="translate(-32.9 -41.96)"/><path class="cls-1" d="M2148.66,274.45c-19.2-5.55-22.92-6.58-23-6.49-.34.36,4,7.68,10.58,18L2144,298l7.19,6.12c4,3.36,14.87,12.1,24.2,19.39l13.19,10.32a156.74,156.74,0,0,0,6-115.75l-8.1,8-11.27,11.09L2153.35,248c-12.07,5.92-22.21,10.79-22.61,10.79s-3.32-1.89-7.32-4.69c-3.62-2.59-6.67-4.66-6.73-4.6a34.74,34.74,0,0,0,1.89,4.2c1.8,3.72,2.07,4.15,3,4.42,31.78,10,31.78,10,43.88,15.06l11.77,4.87.52,2.29a8.77,8.77,0,0,1,.39,2.41C2178,282.86,2172.59,281.34,2148.66,274.45Z" transform="translate(-32.9 -41.96)"/><path class="cls-1" d="M1977.57,286.41c0-.74-.24-1.1-1.34-1.86-1.55-1-2-1.13-2-.37a5,5,0,0,0,1.67,1.83l1.68,1.31Z" transform="translate(-32.9 -41.96)"/><path class="cls-1" d="M1937.45,343.27c14.75-8.08,21.12-12.13,22.73-14.45a10.29,10.29,0,0,1,2.14-2.13c1.12-.76,1.43-1.25,2.37-3.69a39.16,39.16,0,0,0,1.53-5c1.67-8.17,3.29-17.86,3.69-22.25.27-2.86.61-6.4.76-7.92s.24-2.74.21-2.77-2.74-2-6-4.27-8.23-6-11-8.14c-4.87-3.78-5.21-4.11-8.23-8.11-2.65-3.53-3.23-4.51-4-6.7-.82-2.56-1-3.63-.24-1.86.21.49,2,3.38,4.11,6.4l3.72,5.49,10.91,7.46c6,4.12,10.94,7.44,11,7.41a7.75,7.75,0,0,0-.24-1.86l-.33-1.8-5.89-4.45-5.91-4.48-2.93-4.27c-3.56-5.15-6.91-12.22-6.61-13.83.28-1.37.61-1.16.82.55.13,1.09.83,2.62,2.78,6,2.31,4,3.08,5.06,7,9.3a50.09,50.09,0,0,0,7.8,7.25,24.69,24.69,0,0,0,3.56,2.41c.1-.06.71-5.12,1.38-11.25,1.12-10.21,1.22-11.76,1.22-19.38a94.45,94.45,0,0,1,.33-9.82,3.17,3.17,0,0,1,3.26-2.83c1.25-.09,1.43,0,4,2.13l2.66,2.23.15-2.23c.18-2.53.85-4.05,1.92-4.33a6,6,0,0,1,2.65.61c1.68.67,2.68,1.5,8,6.62,3.33,3.23,6.19,5.88,6.34,5.94a17.14,17.14,0,0,0,3-3.32c5.37-6.86,5.12-6.65,10.33-9.85,4.67-2.86,5-3,9-4.05l4.21-1.1,7.07,1a77.46,77.46,0,0,1,9.45,1.74,8.25,8.25,0,0,0,2.56.61c.09-.1.37-5.06.58-11.07.4-10.91.58-14.32.91-15.48a4,4,0,0,1,1.41-1.43l1.25-.8,2.19,1c1.19.55,7,4,12.92,7.71l10.73,6.74.31-.8c4.2-11.09,6.21-14.63,9.14-16.09a7.34,7.34,0,0,1,1.86-.76,8.91,8.91,0,0,1,2.28,1.89c1.83,1.86,2.14,2.44,11,20.57l9,18.69,9.51,5.48c5.24,3,9.69,5.49,9.93,5.49s6.22-2.23,13.35-4.91l13-4.94,7.37-4.57,7.35-4.57,10.69-10.7,9.22-9.24C2170.66,155.4,2116.16,115,2052.4,115c-83.12,0-150.5,68.72-150.5,153.5a155,155,0,0,0,23,81.6C1928.11,348.37,1932.06,346.22,1937.45,343.27Z" transform="translate(-32.9 -41.96)"/><path class="cls-1" d="M1993.83,289.45c.15-3.08.21-3.35,1.52-5.91l1.38-2.65,3.9-2.47c2.62-1.68,3.81-2.59,3.62-2.83s-.76-1-1.4-1.74-2.1-3.14-3.29-5.18c-1.89-3.36-2.16-4-2.41-6a8.2,8.2,0,0,0-.64-2.74c-.21-.3-2.31-2.77-4.66-5.49s-4.33-4.93-4.42-4.93-5.39,31.27-5.91,35.14a67.75,67.75,0,0,0,6.06,4.14l6.1,3.93Z" transform="translate(-32.9 -41.96)"/><path class="cls-1" d="M1966.31,329.92l1.43-2.9,1.46-2.89L1965,328.3l-4.21,4.18L1941.26,344l-14.69,8.68q1.32,2.06,2.71,4.07l18.16-13.15Z" transform="translate(-32.9 -41.96)"/><path class="cls-1" d="M1993.37,248c2.93,2.93,5.37,5.24,5.43,5.18a4.79,4.79,0,0,0,.3-1.09c.19-.89-.12-1.22-5.24-6.31-2.95-3-5.48-5.4-5.61-5.4s-.21.52-.21,1.16C1988,242.58,1988.34,243,1993.37,248Z" transform="translate(-32.9 -41.96)"/><path class="cls-1" d="M2160.46,318l-24-17.31-8.29-17.25-8.26-17.22-22.4-6.46c-12.35-3.54-22.8-6.52-23.23-6.62-.94-.24-1.49.61-.82,1.25.21.19,4.48,3.33,9.51,6.95l9.08,6.59,14.66,13.8,14.63,13.78L2133.09,309c6.46,7.44,14.17,16.37,17.09,19.87,4.73,5.61,5.7,6.59,8.54,8.66,1.77,1.28,3.38,2.5,3.59,2.71.74.67-1.06,4-3.32,6.16l-1.95,1.89-4.78.91-4.76.92-18.71-7.78c-10.27-4.26-19-7.95-19.29-8.16s-4.58-3.87-9.39-8.05l-8.78-7.65-11.92-15.79c-6.55-8.68-12-15.91-12.16-16.06s-.76,1.43-1.4,3.51l-1.19,3.77-1.83,1a6.34,6.34,0,0,1-3.53,1h-1.74l-.82,2.65c-.46,1.49-2.29,7.56-4.12,13.5l-3.32,10.79,1.37,7.65c.73,4.17,1.92,10.76,2.59,14.63s1.34,7.5,1.44,8.07a10,10,0,0,0,1.82,3.17,20.85,20.85,0,0,1,1.62,2.29,3.39,3.39,0,0,1-1,.85l-1,.67-1.53-1.43-1.52-1.43-3-14.63c-1.64-8.05-3.08-14.81-3.17-15s-2.59,7.2-5.51,16.46L2036.07,361l-5,6.88c-5.16,7.11-5.89,7.9-17,18.05-.52.45-2,.76-6.34,1.43-6.31.94-5.76,1-6.13-1.34l-.18-1.22,2.83-1.46a25.8,25.8,0,0,1,5.16-2l2.28-.52,8.26-7.44c8.08-7.25,8.32-7.5,11-11.46l2.78-4.05,7-27.46c3.87-15.12,7-27.68,7-27.89a20,20,0,0,0-2.81-3.66l-2.8-3.26-.82,1.68a5.09,5.09,0,0,1-2.59,2.62,6.34,6.34,0,0,1-3.36.94h-1.58l-8.14-8.93c-4.48-4.87-8.26-8.9-8.35-8.9a7.88,7.88,0,0,0-1.4,1l-1.19,1,1,3.87,1,3.91-.73,2.59a37.3,37.3,0,0,1-3.26,7.89c-.49.7-1.43,4.54-1.16,4.72.06,0,.79.64,1.65,1.31a49.16,49.16,0,0,0,5,3.33c1.92,1.12,5.64,3.56,8.26,5.39,4.7,3.29,4.82,3.41,6.77,6.31,1.68,2.53,2,3.32,2.44,5.43l.52,2.43-1,1.65c-.52.88-7.56,10.36-15.6,21.06L2005,374.33l-1.19-.22a5.42,5.42,0,0,1-1.34-.3,4.31,4.31,0,0,1,.33-1.47,6.67,6.67,0,0,0,.31-2.68c-.13-1.16.67-17.77,2.16-46,.24-4.27.4-7.83.34-7.89a10,10,0,0,0-1.16,2c-.89,1.8-1.13,2.83-1.71,7-.37,2.65-.76,5-.82,5.09a3.85,3.85,0,0,1-.73.55c-.49.27-.71.09-1.44-1.22a5.26,5.26,0,0,0-1-1.5,12.88,12.88,0,0,0-1.5,2.14,13,13,0,0,1-1.55,2.1,12.82,12.82,0,0,1-.85-3.08l-.67-3.08,2.49-3.56c1.41-1.95,4-5.21,5.8-7.23l3.26-3.68-1.4-.22c-.77-.09-2-.18-2.84-.18H2000l-.79-1.83a5.22,5.22,0,0,1-.49-3.87,11.77,11.77,0,0,0,.15-2.41c-.09-.21-.73-.45-1.46-.58a13,13,0,0,1-3-1.09c-1.46-.74-1.8-1-2-2a9.46,9.46,0,0,1-.34-1.46c0-.3-11-6.25-11.52-6.25-.12,0-1.92,8.75-4,19.42s-3.84,19.6-3.9,19.78-.64.33-1.25.3c-1,0-3.08,1.41-25.57,18.2l-14.36,10.69c27.42,37.74,71.4,62.21,121,62.21,58.92,0,109.92-34.54,134.63-84.84C2180.79,332.62,2170.38,325.13,2160.46,318Z" transform="translate(-32.9 -41.96)"/><path class="cls-1" d="M1992.76,295.76a4.5,4.5,0,0,0,.25-.7c.15-.52-.67-1.16-5.37-4.17-3-1.95-5.79-3.66-6-3.75s-.55,0-.67.51-.09.77,0,.86C1982.46,289.51,1992.7,295.85,1992.76,295.76Z" transform="translate(-32.9 -41.96)"/><path class="cls-1" d="M1974,287.5c0,2-3.5,30.24-4,32.19a15,15,0,0,0-.55,3c.09.25,5.3-21.88,7-29.83l.64-2.81-1.07-1.09C1975,287.78,1974,287.11,1974,287.5Z" transform="translate(-32.9 -41.96)"/><path class="cls-1" d="M1977.83,281.44c.12-.61,3.14-18,5.06-29.2.3-1.92.64-3.81.73-4.15.12-.51-.43-1.15-2.74-3.13a35.44,35.44,0,0,0-3.05-2.47,2.77,2.77,0,0,0-.15,1.28c0,3.59-1,18.77-1.53,23.86-1.4,13.23-1.34,12.31-.82,12.89a7.58,7.58,0,0,0,1.4,1.07C1977.65,282.14,1977.65,282.14,1977.83,281.44Z" transform="translate(-32.9 -41.96)"/></g><g id="Layer_7" data-name="Layer 7"><path class="cls-1" d="M2052.4,506a237,237,0,0,1-181.21-84h-1.29l182,253,182-253h-.29A237,237,0,0,1,2052.4,506Z" transform="translate(-32.9 -41.96)"/></g></g></svg>